<?xml version="1.0" encoding="UTF-8" standalone="no"?>
<!DOCTYPE svg PUBLIC "-//W3C//DTD SVG 1.1//EN" "http://www.w3.org/Graphics/SVG/1.1/DTD/svg11.dtd">
<svg width="100%" height="100%" viewBox="0 0 103 83" version="1.1" xmlns="http://www.w3.org/2000/svg" xmlns:xlink="http://www.w3.org/1999/xlink" xml:space="preserve" xmlns:serif="http://www.serif.com/" style="fill-rule:evenodd;clip-rule:evenodd;stroke-linejoin:round;stroke-miterlimit:2;">
    <g transform="matrix(1,0,0,1,-529.683,-818.415)">
        <g>
            <g transform="matrix(0.264647,0,0,0.264647,19.9315,585.299)">
                <path d="M2018.2,1192.16L2137.5,1119.75L2137.68,1113.57L2097.37,1077.8L2018.2,1192.16Z" style="fill:rgb(15,73,157);fill-rule:nonzero;"/>
            </g>
            <g transform="matrix(0.264647,0,0,0.264647,19.9315,585.299)">
                <path d="M1926.16,1088.22L1976.9,1016.11L2141.24,996.226L2137.5,1119.75L1926.16,1088.22Z" style="fill:rgb(9,44,95);fill-rule:nonzero;"/>
            </g>
            <g transform="matrix(0.264647,0,0,0.264647,19.9315,585.299)">
                <path d="M1926.16,1088.22L1971.18,924.29L2314.49,880.858L2218.41,1088.22L1926.16,1088.22Z" style="fill:url(#_Linear1);fill-rule:nonzero;"/>
            </g>
            <g id="facebook-f-brands.svg" transform="matrix(0.0729052,0,0,0.0729052,581.068,849.304)">
                <g transform="matrix(1,0,0,1,-160,-256)">
                    <clipPath id="_clip2">
                        <rect x="0" y="0" width="320" height="512"/>
                    </clipPath>
                    <g clip-path="url(#_clip2)">
                        <path d="M279.14,288L293.36,195.34L204.45,195.34L204.45,135.21C204.45,109.86 216.87,85.15 256.69,85.15L297.11,85.15L297.11,6.26C297.11,6.26 260.43,0 225.36,0C152.14,0 104.28,44.38 104.28,124.72L104.28,195.34L22.89,195.34L22.89,288L104.28,288L104.28,512L204.45,512L204.45,288L279.14,288Z" style="fill:white;fill-rule:nonzero;stroke:white;stroke-width:1px;"/>
                    </g>
                </g>
            </g>
        </g>
    </g>
    <defs>
        <linearGradient id="_Linear1" x1="0" y1="0" x2="1" y2="0" gradientUnits="userSpaceOnUse" gradientTransform="matrix(212.092,133.191,-133.191,212.092,1992.54,941.005)"><stop offset="0" style="stop-color:rgb(30,114,234);stop-opacity:1"/><stop offset="1" style="stop-color:rgb(0,66,160);stop-opacity:1"/></linearGradient>
    </defs>
</svg>
